<?xml version="1.0" standalone="no"?>
<!DOCTYPE svg PUBLIC "-//W3C//DTD SVG 1.1//EN" "http://www.w3.org/Graphics/SVG/1.1/DTD/svg11.dtd">
<svg xmlns="http://www.w3.org/2000/svg" xmlns:xlink="http://www.w3.org/1999/xlink" width="768" zoomAndPan="magnify" viewBox="0 0 768 767.999994" height="768" preserveAspectRatio="xMidYMid meet" version="1.0"><defs><g/><clipPath id="c13804f091"><path d="M 30.746094 159.683594 L 737.246094 159.683594 L 737.246094 608.183594 L 30.746094 608.183594 Z M 30.746094 159.683594 " clip-rule="nonzero"/></clipPath><clipPath id="f054ad0cb1"><path d="M 53.410156 244.871094 L 714.589844 244.871094 L 714.589844 523.128906 L 53.410156 523.128906 Z M 53.410156 244.871094 " clip-rule="nonzero"/></clipPath><clipPath id="2e0fc27fec"><path d="M 714.589844 384 L 633.640625 523.128906 L 134.359375 523.128906 L 53.410156 384 L 134.359375 244.871094 L 633.640625 244.871094 Z M 714.589844 384 " clip-rule="nonzero"/></clipPath><clipPath id="53db4f5ee0"><path d="M 179.574219 179.574219 L 588.425781 179.574219 L 588.425781 588.425781 L 179.574219 588.425781 Z M 179.574219 179.574219 " clip-rule="nonzero"/></clipPath><clipPath id="c145ac6431"><path d="M 384 179.574219 C 271.097656 179.574219 179.574219 271.097656 179.574219 384 C 179.574219 496.902344 271.097656 588.425781 384 588.425781 C 496.902344 588.425781 588.425781 496.902344 588.425781 384 C 588.425781 271.097656 496.902344 179.574219 384 179.574219 Z M 384 179.574219 " clip-rule="nonzero"/></clipPath><clipPath id="2f8f5847d1"><path d="M 67.089844 255.546875 L 700.910156 255.546875 L 700.910156 512.453125 L 67.089844 512.453125 Z M 67.089844 255.546875 " clip-rule="nonzero"/></clipPath><clipPath id="4fc91e9a6e"><path d="M 700.910156 384 L 626.175781 512.453125 L 141.824219 512.453125 L 67.089844 384 L 141.824219 255.546875 L 626.175781 255.546875 Z M 700.910156 384 " clip-rule="nonzero"/></clipPath><clipPath id="5f6ffcc934"><path d="M 191.023438 191.023438 L 576.976562 191.023438 L 576.976562 576.976562 L 191.023438 576.976562 Z M 191.023438 191.023438 " clip-rule="nonzero"/></clipPath><clipPath id="2a8c8dc9ca"><path d="M 384 191.023438 C 277.421875 191.023438 191.023438 277.421875 191.023438 384 C 191.023438 490.578125 277.421875 576.976562 384 576.976562 C 490.578125 576.976562 576.976562 490.578125 576.976562 384 C 576.976562 277.421875 490.578125 191.023438 384 191.023438 Z M 384 191.023438 " clip-rule="nonzero"/></clipPath><clipPath id="1188664c71"><path d="M 76.800781 263.71875 L 691.199219 263.71875 L 691.199219 504.28125 L 76.800781 504.28125 Z M 76.800781 263.71875 " clip-rule="nonzero"/></clipPath><clipPath id="37d3b7f25f"><path d="M 691.199219 384 L 621.21875 504.28125 L 146.78125 504.28125 L 76.800781 384 L 146.78125 263.71875 L 621.21875 263.71875 Z M 691.199219 384 " clip-rule="nonzero"/></clipPath><clipPath id="b7f00a0393"><path d="M 199.769531 199.769531 L 568.230469 199.769531 L 568.230469 568.230469 L 199.769531 568.230469 Z M 199.769531 199.769531 " clip-rule="nonzero"/></clipPath><clipPath id="c4c7abe7a0"><path d="M 384 199.769531 C 282.25 199.769531 199.769531 282.25 199.769531 384 C 199.769531 485.75 282.25 568.230469 384 568.230469 C 485.75 568.230469 568.230469 485.75 568.230469 384 C 568.230469 282.25 485.75 199.769531 384 199.769531 Z M 384 199.769531 " clip-rule="nonzero"/></clipPath><clipPath id="329e944d6d"><path d="M 76.050781 290.445312 L 692.066406 290.445312 L 692.066406 478.878906 L 76.050781 478.878906 Z M 76.050781 290.445312 " clip-rule="nonzero"/></clipPath><clipPath id="03be0f046e"><path d="M 692.066406 384.660156 L 637.246094 478.878906 L 130.867188 478.878906 L 76.050781 384.660156 L 130.867188 290.445312 L 637.246094 290.445312 Z M 692.066406 384.660156 " clip-rule="nonzero"/></clipPath><clipPath id="88b2445617"><path d="M 344.222656 232 L 423.722656 232 L 423.722656 295.207031 L 344.222656 295.207031 Z M 344.222656 232 " clip-rule="nonzero"/></clipPath><clipPath id="c0eaf6d273"><path d="M 344.222656 212.707031 L 423.722656 212.707031 L 423.722656 231 L 344.222656 231 Z M 344.222656 212.707031 " clip-rule="nonzero"/></clipPath></defs><g clip-path="url(#c13804f091)"><path fill="#003648" d="M 122.675781 224.765625 L 226.015625 224.765625 C 266.554688 184.539062 322.371094 159.683594 383.996094 159.683594 C 445.621094 159.683594 501.433594 184.539062 541.980469 224.765625 L 645.316406 224.765625 L 737.246094 383.996094 L 645.316406 543.230469 L 541.980469 543.230469 C 501.433594 583.457031 445.621094 608.3125 383.996094 608.3125 C 322.371094 608.3125 266.554688 583.457031 226.015625 543.230469 L 122.675781 543.230469 L 30.746094 383.996094 L 122.675781 224.765625 " fill-opacity="1" fill-rule="evenodd"/></g><g clip-path="url(#f054ad0cb1)"><g clip-path="url(#2e0fc27fec)"><path fill="#ffffff" d="M 53.410156 244.871094 L 714.589844 244.871094 L 714.589844 523.128906 L 53.410156 523.128906 Z M 53.410156 244.871094 " fill-opacity="1" fill-rule="nonzero"/></g></g><g clip-path="url(#53db4f5ee0)"><g clip-path="url(#c145ac6431)"><path fill="#ffffff" d="M 179.574219 179.574219 L 588.425781 179.574219 L 588.425781 588.425781 L 179.574219 588.425781 Z M 179.574219 179.574219 " fill-opacity="1" fill-rule="nonzero"/></g></g><g clip-path="url(#2f8f5847d1)"><g clip-path="url(#4fc91e9a6e)"><path fill="#27425b" d="M 67.089844 255.546875 L 700.910156 255.546875 L 700.910156 512.453125 L 67.089844 512.453125 Z M 67.089844 255.546875 " fill-opacity="1" fill-rule="nonzero"/></g></g><g clip-path="url(#5f6ffcc934)"><g clip-path="url(#2a8c8dc9ca)"><path fill="#27425b" d="M 191.023438 191.023438 L 576.976562 191.023438 L 576.976562 576.976562 L 191.023438 576.976562 Z M 191.023438 191.023438 " fill-opacity="1" fill-rule="nonzero"/></g></g><g clip-path="url(#1188664c71)"><g clip-path="url(#37d3b7f25f)"><path fill="#00d17c" d="M 76.800781 263.71875 L 691.199219 263.71875 L 691.199219 504.28125 L 76.800781 504.28125 Z M 76.800781 263.71875 " fill-opacity="1" fill-rule="nonzero"/></g></g><g clip-path="url(#b7f00a0393)"><g clip-path="url(#c4c7abe7a0)"><path fill="#00d17c" d="M 199.769531 199.769531 L 568.230469 199.769531 L 568.230469 568.230469 L 199.769531 568.230469 Z M 199.769531 199.769531 " fill-opacity="1" fill-rule="nonzero"/></g></g><g clip-path="url(#329e944d6d)"><g clip-path="url(#03be0f046e)"><path fill="#003648" d="M 76.050781 290.445312 L 692.066406 290.445312 L 692.066406 478.878906 L 76.050781 478.878906 Z M 76.050781 290.445312 " fill-opacity="1" fill-rule="nonzero"/></g></g><path stroke-linecap="butt" transform="matrix(0.75, 0, 0, 0.75, 105.951766, 303.245191)" fill="none" stroke-linejoin="miter" d="M 0.00181232 5.001203 L 741.460182 5.001203 " stroke="#ffffff" stroke-width="10" stroke-opacity="1" stroke-miterlimit="4"/><path stroke-linecap="butt" transform="matrix(0.75, 0, 0, 0.75, 108.666787, 463.398837)" fill="none" stroke-linejoin="miter" d="M 0.00157537 4.999467 L 734.220362 4.999467 " stroke="#ffffff" stroke-width="10" stroke-opacity="1" stroke-miterlimit="4"/><g fill="#f4f9fd" fill-opacity="1"><g transform="translate(127.377559, 389.907159)"><g><path d="M 22.40625 0 L 22.40625 -21.4375 L -0.484375 -56 L 12.875 -56 L 28.5625 -31.6875 L 44.3125 -56 L 56.953125 -56 L 34 -21.359375 L 34 0 Z M 22.40625 0 "/></g></g></g><g fill="#f4f9fd" fill-opacity="1"><g transform="translate(191.852104, 389.907159)"><g><path d="M 62.15625 -28 C 62.15625 -24 61.378906 -20.222656 59.828125 -16.671875 C 58.285156 -13.128906 56.191406 -10.0625 53.546875 -7.46875 C 50.910156 -4.882812 47.78125 -2.847656 44.15625 -1.359375 C 40.53125 0.128906 36.640625 0.875 32.484375 0.875 C 28.367188 0.875 24.5 0.128906 20.875 -1.359375 C 17.25 -2.847656 14.113281 -4.882812 11.46875 -7.46875 C 8.832031 -10.0625 6.738281 -13.128906 5.1875 -16.671875 C 3.644531 -20.222656 2.875 -24 2.875 -28 C 2.875 -32 3.644531 -35.769531 5.1875 -39.3125 C 6.738281 -42.863281 8.832031 -45.929688 11.46875 -48.515625 C 14.113281 -51.109375 17.25 -53.148438 20.875 -54.640625 C 24.5 -56.128906 28.367188 -56.875 32.484375 -56.875 C 36.640625 -56.875 40.53125 -56.128906 44.15625 -54.640625 C 47.78125 -53.148438 50.910156 -51.109375 53.546875 -48.515625 C 56.191406 -45.929688 58.285156 -42.863281 59.828125 -39.3125 C 61.378906 -35.769531 62.15625 -32 62.15625 -28 Z M 50.234375 -28 C 50.234375 -30.613281 49.78125 -33.023438 48.875 -35.234375 C 47.96875 -37.453125 46.726562 -39.375 45.15625 -41 C 43.582031 -42.625 41.703125 -43.898438 39.515625 -44.828125 C 37.328125 -45.765625 34.984375 -46.234375 32.484375 -46.234375 C 29.972656 -46.234375 27.632812 -45.765625 25.46875 -44.828125 C 23.3125 -43.898438 21.445312 -42.625 19.875 -41 C 18.300781 -39.375 17.0625 -37.453125 16.15625 -35.234375 C 15.25 -33.023438 14.796875 -30.613281 14.796875 -28 C 14.796875 -25.4375 15.25 -23.035156 16.15625 -20.796875 C 17.0625 -18.554688 18.300781 -16.625 19.875 -15 C 21.445312 -13.375 23.3125 -12.09375 25.46875 -11.15625 C 27.632812 -10.226562 29.972656 -9.765625 32.484375 -9.765625 C 34.984375 -9.765625 37.328125 -10.226562 39.515625 -11.15625 C 41.703125 -12.09375 43.582031 -13.375 45.15625 -15 C 46.726562 -16.625 47.96875 -18.554688 48.875 -20.796875 C 49.78125 -23.035156 50.234375 -25.4375 50.234375 -28 Z M 50.234375 -28 "/></g></g></g><g fill="#f4f9fd" fill-opacity="1"><g transform="translate(264.885811, 389.907159)"><g><path d="M 53.765625 -24.234375 C 53.765625 -20.453125 53.175781 -17 52 -13.875 C 50.820312 -10.757812 49.15625 -8.117188 47 -5.953125 C 44.84375 -3.796875 42.226562 -2.128906 39.15625 -0.953125 C 36.09375 0.210938 32.691406 0.796875 28.953125 0.796875 C 25.171875 0.796875 21.742188 0.210938 18.671875 -0.953125 C 15.609375 -2.128906 13.007812 -3.796875 10.875 -5.953125 C 8.75 -8.117188 7.097656 -10.75 5.921875 -13.84375 C 4.742188 -16.9375 4.15625 -20.398438 4.15625 -24.234375 L 4.15625 -56 L 15.765625 -56 L 15.765625 -24.234375 C 15.765625 -19.921875 16.976562 -16.457031 19.40625 -13.84375 C 21.832031 -11.226562 25.046875 -9.921875 29.046875 -9.921875 C 33.046875 -9.921875 36.226562 -11.226562 38.59375 -13.84375 C 40.96875 -16.457031 42.15625 -19.921875 42.15625 -24.234375 L 42.15625 -56 L 53.765625 -56 Z M 53.765625 -24.234375 "/></g></g></g><g fill="#f4f9fd" fill-opacity="1"><g transform="translate(330.880188, 389.907159)"><g><path d="M 33.046875 -9.921875 C 35.972656 -9.921875 38.71875 -10.53125 41.28125 -11.75 C 43.84375 -12.976562 46.109375 -14.742188 48.078125 -17.046875 L 55.6875 -9.515625 C 53.019531 -6.367188 49.617188 -3.863281 45.484375 -2 C 41.347656 -0.132812 37.09375 0.796875 32.71875 0.796875 C 28.507812 0.796875 24.578125 0.0507812 20.921875 -1.4375 C 17.265625 -2.9375 14.101562 -4.960938 11.4375 -7.515625 C 8.769531 -10.078125 6.675781 -13.117188 5.15625 -16.640625 C 3.632812 -20.160156 2.875 -23.945312 2.875 -28 C 2.875 -32.050781 3.644531 -35.847656 5.1875 -39.390625 C 6.738281 -42.941406 8.847656 -46 11.515625 -48.5625 C 14.179688 -51.125 17.34375 -53.148438 21 -54.640625 C 24.65625 -56.128906 28.5625 -56.875 32.71875 -56.875 C 37.195312 -56.875 41.539062 -55.925781 45.75 -54.03125 C 49.96875 -52.144531 53.382812 -49.601562 56 -46.40625 L 48.15625 -38.640625 C 46.1875 -41.085938 43.867188 -42.960938 41.203125 -44.265625 C 38.535156 -45.578125 35.707031 -46.234375 32.71875 -46.234375 C 30.207031 -46.234375 27.84375 -45.765625 25.625 -44.828125 C 23.414062 -43.898438 21.507812 -42.625 19.90625 -41 C 18.3125 -39.375 17.0625 -37.453125 16.15625 -35.234375 C 15.25 -33.023438 14.796875 -30.613281 14.796875 -28 C 14.796875 -25.4375 15.257812 -23.046875 16.1875 -20.828125 C 17.125 -18.617188 18.40625 -16.710938 20.03125 -15.109375 C 21.664062 -13.515625 23.585938 -12.25 25.796875 -11.3125 C 28.015625 -10.382812 30.429688 -9.921875 33.046875 -9.921875 Z M 33.046875 -9.921875 "/></g></g></g><g fill="#f4f9fd" fill-opacity="1"><g transform="translate(396.314641, 389.907159)"><g><path d="M 5.046875 0 L 5.046875 -56 L 16.640625 -56 L 16.640625 -10.234375 L 47.28125 -10.234375 L 47.28125 0 Z M 5.046875 0 "/></g></g></g><g fill="#f4f9fd" fill-opacity="1"><g transform="translate(454.549799, 389.907159)"><g><path d="M 5.046875 0 L 5.046875 -56 L 48.078125 -56 L 48.078125 -45.921875 L 16.640625 -45.921875 L 16.640625 -33.125 L 37.359375 -33.125 L 37.359375 -23.359375 L 16.640625 -23.359375 L 16.640625 -10.078125 L 48.40625 -10.078125 L 48.40625 0 Z M 5.046875 0 "/></g></g></g><g fill="#f4f9fd" fill-opacity="1"><g transform="translate(514.144812, 389.907159)"><g><path d="M -0.3125 0 L 22.71875 -56 L 36.15625 -56 L 58.875 0 L 46.3125 0 L 40.640625 -14.71875 L 17.515625 -14.71875 L 11.765625 0 Z M 21.125 -24 L 37.125 -24 L 29.203125 -44.640625 Z M 21.125 -24 "/></g></g></g><g fill="#f4f9fd" fill-opacity="1"><g transform="translate(580.699161, 389.907159)"><g><path d="M 5.046875 -56 L 16.078125 -56 L 43.921875 -19.765625 L 43.921875 -56 L 54.796875 -56 L 54.796875 0 L 44.5625 0 L 16 -37.4375 L 16 0 L 5.046875 0 Z M 5.046875 -56 "/></g></g></g><g fill="#f4f9fd" fill-opacity="1"><g transform="translate(135.540299, 441.508487)"><g><path d="M 1.984375 0 L 1.984375 -29.59375 L 8.859375 -29.59375 L 8.859375 -6.0625 L 15.875 -6.0625 L 15.875 0 Z M 1.984375 0 "/></g></g></g><g fill="#f4f9fd" fill-opacity="1"><g transform="translate(156.270407, 441.508487)"><g><path d="M 14.75 0 L 13.84375 -5.5 L 7.921875 -5.5 L 7.015625 0 L 0.21875 0 L 5.9375 -29.59375 L 15.953125 -29.59375 L 21.6875 0 Z M 11.015625 -23.3125 L 10.703125 -23.3125 L 8.8125 -11.234375 L 12.90625 -11.234375 Z M 11.015625 -23.3125 "/></g></g></g><g fill="#f4f9fd" fill-opacity="1"><g transform="translate(182.462553, 441.508487)"><g><path d="M 19.921875 -29.59375 L 19.921875 -13.203125 C 19.921875 -9.273438 19.757812 -6.4375 19.4375 -4.6875 C 19.125 -2.9375 18.335938 -1.660156 17.078125 -0.859375 C 15.816406 -0.0546875 13.738281 0.34375 10.84375 0.34375 C 7.945312 0.34375 5.875 -0.0546875 4.625 -0.859375 C 3.375 -1.660156 2.59375 -2.925781 2.28125 -4.65625 C 1.96875 -6.394531 1.8125 -9.242188 1.8125 -13.203125 L 1.8125 -29.59375 L 8.6875 -29.59375 L 8.6875 -11.1875 C 8.6875 -9.207031 8.722656 -7.863281 8.796875 -7.15625 C 8.867188 -6.457031 9.039062 -6.003906 9.3125 -5.796875 C 9.582031 -5.597656 10.09375 -5.5 10.84375 -5.5 C 11.613281 -5.5 12.132812 -5.597656 12.40625 -5.796875 C 12.675781 -6.003906 12.847656 -6.457031 12.921875 -7.15625 C 12.992188 -7.863281 13.03125 -9.207031 13.03125 -11.1875 L 13.03125 -29.59375 Z M 19.921875 -29.59375 "/></g></g></g><g fill="#f4f9fd" fill-opacity="1"><g transform="translate(208.482671, 441.508487)"><g><path d="M 14.453125 0 L 8.6875 -14.578125 L 8.515625 -14.578125 L 8.515625 0 L 1.9375 0 L 1.9375 -29.59375 L 8.5625 -29.59375 L 13.765625 -16.5625 L 14.015625 -16.5625 L 14.015625 -29.59375 L 20.5625 -29.59375 L 20.5625 0 Z M 14.453125 0 "/></g></g></g><g fill="#f4f9fd" fill-opacity="1"><g transform="translate(235.276925, 441.508487)"><g><path d="M 1.984375 -29.59375 L 10.328125 -29.59375 C 13.453125 -29.59375 15.679688 -29.15625 17.015625 -28.28125 C 18.347656 -27.40625 19.171875 -26.035156 19.484375 -24.171875 C 19.796875 -22.304688 19.953125 -19.179688 19.953125 -14.796875 C 19.953125 -10.441406 19.796875 -7.320312 19.484375 -5.4375 C 19.171875 -3.5625 18.347656 -2.1875 17.015625 -1.3125 C 15.679688 -0.4375 13.453125 0 10.328125 0 L 1.984375 0 Z M 10.28125 -5.890625 C 11.3125 -5.890625 11.988281 -6.023438 12.3125 -6.296875 C 12.644531 -6.566406 12.863281 -7.25 12.96875 -8.34375 C 13.070312 -9.4375 13.125 -11.585938 13.125 -14.796875 C 13.125 -17.984375 13.070312 -20.128906 12.96875 -21.234375 C 12.863281 -22.335938 12.640625 -23.023438 12.296875 -23.296875 C 11.953125 -23.566406 11.28125 -23.703125 10.28125 -23.703125 L 8.8125 -23.703125 L 8.8125 -5.890625 Z M 10.28125 -5.890625 "/></g></g></g><g fill="#f4f9fd" fill-opacity="1"><g transform="translate(260.995983, 441.508487)"><g><path d="M 13.671875 0 L 11.0625 -9.984375 L 8.859375 -9.984375 L 8.859375 0 L 1.984375 0 L 1.984375 -29.59375 L 12.390625 -29.59375 C 14.535156 -29.59375 16.164062 -29.234375 17.28125 -28.515625 C 18.40625 -27.796875 19.15625 -26.75 19.53125 -25.375 C 19.90625 -24 20.09375 -22.132812 20.09375 -19.78125 C 20.09375 -17.601562 19.910156 -15.816406 19.546875 -14.421875 C 19.191406 -13.035156 18.46875 -11.984375 17.375 -11.265625 L 20.78125 0 Z M 10.671875 -15.703125 C 11.503906 -15.703125 12.078125 -15.78125 12.390625 -15.9375 C 12.703125 -16.09375 12.914062 -16.4375 13.03125 -16.96875 C 13.144531 -17.5 13.203125 -18.425781 13.203125 -19.75 C 13.203125 -21.0625 13.148438 -21.972656 13.046875 -22.484375 C 12.953125 -23.003906 12.738281 -23.34375 12.40625 -23.5 C 12.082031 -23.664062 11.503906 -23.75 10.671875 -23.75 L 8.859375 -23.75 L 8.859375 -15.703125 Z M 10.671875 -15.703125 "/></g></g></g><g fill="#f4f9fd" fill-opacity="1"><g transform="translate(286.758048, 441.508487)"><g><path d="M 6.796875 0 L 6.796875 -10.015625 L -0.046875 -29.59375 L 6.921875 -29.59375 L 10.1875 -17.203125 L 10.625 -17.203125 L 13.71875 -29.59375 L 20.515625 -29.59375 L 13.671875 -10.015625 L 13.671875 0 Z M 6.796875 0 "/></g></g></g><g fill="#f4f9fd" fill-opacity="1"><g transform="translate(311.53091, 441.508487)"><g/></g></g><g fill="#f4f9fd" fill-opacity="1"><g transform="translate(323.487351, 441.508487)"><g><path d="M 23.09375 -17.59375 L 23.09375 -12.296875 L 19.921875 -12.296875 L 19.921875 -0.46875 C 18.742188 -0.238281 17.347656 -0.046875 15.734375 0.109375 C 14.128906 0.265625 12.695312 0.34375 11.4375 0.34375 C 8.914062 0.34375 6.929688 0.0664062 5.484375 -0.484375 C 4.035156 -1.046875 3.007812 -1.914062 2.40625 -3.09375 C 1.800781 -4.269531 1.5 -5.832031 1.5 -7.78125 C 1.5 -10.132812 1.84375 -11.828125 2.53125 -12.859375 C 3.21875 -13.890625 4.3125 -14.609375 5.8125 -15.015625 L 5.8125 -15.1875 C 4.4375 -15.5625 3.414062 -16.304688 2.75 -17.421875 C 2.09375 -18.535156 1.765625 -20.15625 1.765625 -22.28125 C 1.765625 -24.175781 2.097656 -25.679688 2.765625 -26.796875 C 3.441406 -27.910156 4.503906 -28.710938 5.953125 -29.203125 C 7.398438 -29.691406 9.332031 -29.9375 11.75 -29.9375 C 12.914062 -29.9375 14.257812 -29.859375 15.78125 -29.703125 C 17.300781 -29.546875 18.664062 -29.351562 19.875 -29.125 L 19.875 -24.265625 C 17.976562 -24.492188 15.851562 -24.609375 13.5 -24.609375 C 11.84375 -24.609375 10.675781 -24.535156 10 -24.390625 C 9.320312 -24.242188 8.867188 -23.941406 8.640625 -23.484375 C 8.410156 -23.023438 8.296875 -22.222656 8.296875 -21.078125 C 8.296875 -20.015625 8.351562 -19.253906 8.46875 -18.796875 C 8.582031 -18.335938 8.8125 -18.019531 9.15625 -17.84375 C 9.5 -17.675781 10.0625 -17.59375 10.84375 -17.59375 L 11.609375 -17.59375 L 11.609375 -12.296875 L 10.84375 -12.296875 C 10.039062 -12.296875 9.441406 -12.21875 9.046875 -12.0625 C 8.660156 -11.90625 8.390625 -11.566406 8.234375 -11.046875 C 8.078125 -10.535156 8 -9.722656 8 -8.609375 C 8 -7.453125 8.113281 -6.628906 8.34375 -6.140625 C 8.570312 -5.660156 8.960938 -5.347656 9.515625 -5.203125 C 10.078125 -5.054688 11.019531 -4.984375 12.34375 -4.984375 C 12.863281 -4.984375 13.25 -5 13.5 -5.03125 L 13.5 -17.59375 Z M 23.09375 -17.59375 "/></g></g></g><g fill="#f4f9fd" fill-opacity="1"><g transform="translate(351.528854, 441.508487)"><g/></g></g><g fill="#f4f9fd" fill-opacity="1"><g transform="translate(363.485306, 441.508487)"><g><path d="M 1.984375 -29.59375 L 10.328125 -29.59375 C 13.453125 -29.59375 15.679688 -29.15625 17.015625 -28.28125 C 18.347656 -27.40625 19.171875 -26.035156 19.484375 -24.171875 C 19.796875 -22.304688 19.953125 -19.179688 19.953125 -14.796875 C 19.953125 -10.441406 19.796875 -7.320312 19.484375 -5.4375 C 19.171875 -3.5625 18.347656 -2.1875 17.015625 -1.3125 C 15.679688 -0.4375 13.453125 0 10.328125 0 L 1.984375 0 Z M 10.28125 -5.890625 C 11.3125 -5.890625 11.988281 -6.023438 12.3125 -6.296875 C 12.644531 -6.566406 12.863281 -7.25 12.96875 -8.34375 C 13.070312 -9.4375 13.125 -11.585938 13.125 -14.796875 C 13.125 -17.984375 13.070312 -20.128906 12.96875 -21.234375 C 12.863281 -22.335938 12.640625 -23.023438 12.296875 -23.296875 C 11.953125 -23.566406 11.28125 -23.703125 10.28125 -23.703125 L 8.8125 -23.703125 L 8.8125 -5.890625 Z M 10.28125 -5.890625 "/></g></g></g><g fill="#f4f9fd" fill-opacity="1"><g transform="translate(389.204376, 441.508487)"><g><path d="M 13.671875 0 L 11.0625 -9.984375 L 8.859375 -9.984375 L 8.859375 0 L 1.984375 0 L 1.984375 -29.59375 L 12.390625 -29.59375 C 14.535156 -29.59375 16.164062 -29.234375 17.28125 -28.515625 C 18.40625 -27.796875 19.15625 -26.75 19.53125 -25.375 C 19.90625 -24 20.09375 -22.132812 20.09375 -19.78125 C 20.09375 -17.601562 19.910156 -15.816406 19.546875 -14.421875 C 19.191406 -13.035156 18.46875 -11.984375 17.375 -11.265625 L 20.78125 0 Z M 10.671875 -15.703125 C 11.503906 -15.703125 12.078125 -15.78125 12.390625 -15.9375 C 12.703125 -16.09375 12.914062 -16.4375 13.03125 -16.96875 C 13.144531 -17.5 13.203125 -18.425781 13.203125 -19.75 C 13.203125 -21.0625 13.148438 -21.972656 13.046875 -22.484375 C 12.953125 -23.003906 12.738281 -23.34375 12.40625 -23.5 C 12.082031 -23.664062 11.503906 -23.75 10.671875 -23.75 L 8.859375 -23.75 L 8.859375 -15.703125 Z M 10.671875 -15.703125 "/></g></g></g><g fill="#f4f9fd" fill-opacity="1"><g transform="translate(414.966453, 441.508487)"><g><path d="M 6.796875 0 L 6.796875 -10.015625 L -0.046875 -29.59375 L 6.921875 -29.59375 L 10.1875 -17.203125 L 10.625 -17.203125 L 13.71875 -29.59375 L 20.515625 -29.59375 L 13.671875 -10.015625 L 13.671875 0 Z M 6.796875 0 "/></g></g></g><g fill="#f4f9fd" fill-opacity="1"><g transform="translate(439.739327, 441.508487)"><g/></g></g><g fill="#f4f9fd" fill-opacity="1"><g transform="translate(451.69578, 441.508487)"><g><path d="M 16.046875 -0.4375 C 15.410156 -0.207031 14.59375 -0.0195312 13.59375 0.125 C 12.59375 0.269531 11.660156 0.34375 10.796875 0.34375 C 8.015625 0.34375 5.96875 -0.113281 4.65625 -1.03125 C 3.351562 -1.945312 2.492188 -3.4375 2.078125 -5.5 C 1.671875 -7.570312 1.46875 -10.671875 1.46875 -14.796875 C 1.46875 -18.898438 1.679688 -21.984375 2.109375 -24.046875 C 2.535156 -26.109375 3.40625 -27.601562 4.71875 -28.53125 C 6.039062 -29.46875 8.066406 -29.9375 10.796875 -29.9375 C 11.773438 -29.9375 12.742188 -29.863281 13.703125 -29.71875 C 14.660156 -29.582031 15.410156 -29.410156 15.953125 -29.203125 L 15.953125 -23.78125 C 14.378906 -23.957031 13.117188 -24.046875 12.171875 -24.046875 C 10.847656 -24.046875 9.953125 -23.863281 9.484375 -23.5 C 9.015625 -23.144531 8.710938 -22.398438 8.578125 -21.265625 C 8.453125 -20.140625 8.390625 -17.984375 8.390625 -14.796875 C 8.390625 -11.609375 8.453125 -9.445312 8.578125 -8.3125 C 8.710938 -7.1875 9.015625 -6.441406 9.484375 -6.078125 C 9.953125 -5.722656 10.847656 -5.546875 12.171875 -5.546875 C 13.722656 -5.546875 15.015625 -5.632812 16.046875 -5.8125 Z M 16.046875 -0.4375 "/></g></g></g><g fill="#f4f9fd" fill-opacity="1"><g transform="translate(473.200037, 441.508487)"><g><path d="M 1.984375 0 L 1.984375 -29.59375 L 8.859375 -29.59375 L 8.859375 -6.0625 L 15.875 -6.0625 L 15.875 0 Z M 1.984375 0 "/></g></g></g><g fill="#f4f9fd" fill-opacity="1"><g transform="translate(493.930154, 441.508487)"><g><path d="M 1.984375 0 L 1.984375 -29.59375 L 16.734375 -29.59375 L 16.734375 -23.703125 L 8.859375 -23.703125 L 8.859375 -17.890625 L 15.65625 -17.890625 L 15.65625 -12 L 8.859375 -12 L 8.859375 -5.890625 L 16.734375 -5.890625 L 16.734375 0 Z M 1.984375 0 "/></g></g></g><g fill="#f4f9fd" fill-opacity="1"><g transform="translate(516.466622, 441.508487)"><g><path d="M 14.75 0 L 13.84375 -5.5 L 7.921875 -5.5 L 7.015625 0 L 0.21875 0 L 5.9375 -29.59375 L 15.953125 -29.59375 L 21.6875 0 Z M 11.015625 -23.3125 L 10.703125 -23.3125 L 8.8125 -11.234375 L 12.90625 -11.234375 Z M 11.015625 -23.3125 "/></g></g></g><g fill="#f4f9fd" fill-opacity="1"><g transform="translate(542.658754, 441.508487)"><g><path d="M 14.453125 0 L 8.6875 -14.578125 L 8.515625 -14.578125 L 8.515625 0 L 1.9375 0 L 1.9375 -29.59375 L 8.5625 -29.59375 L 13.765625 -16.5625 L 14.015625 -16.5625 L 14.015625 -29.59375 L 20.5625 -29.59375 L 20.5625 0 Z M 14.453125 0 "/></g></g></g><g fill="#f4f9fd" fill-opacity="1"><g transform="translate(569.453018, 441.508487)"><g><path d="M 1.984375 0 L 1.984375 -29.59375 L 8.859375 -29.59375 L 8.859375 0 Z M 1.984375 0 "/></g></g></g><g fill="#f4f9fd" fill-opacity="1"><g transform="translate(584.549064, 441.508487)"><g><path d="M 14.453125 0 L 8.6875 -14.578125 L 8.515625 -14.578125 L 8.515625 0 L 1.9375 0 L 1.9375 -29.59375 L 8.5625 -29.59375 L 13.765625 -16.5625 L 14.015625 -16.5625 L 14.015625 -29.59375 L 20.5625 -29.59375 L 20.5625 0 Z M 14.453125 0 "/></g></g></g><g fill="#f4f9fd" fill-opacity="1"><g transform="translate(611.343328, 441.508487)"><g><path d="M 10.890625 -11.875 L 10.890625 -17.5 L 19.3125 -17.5 L 19.3125 -0.609375 C 18.28125 -0.316406 17.007812 -0.0859375 15.5 0.078125 C 14 0.253906 12.601562 0.34375 11.3125 0.34375 C 8.53125 0.34375 6.457031 -0.0703125 5.09375 -0.90625 C 3.726562 -1.738281 2.78125 -3.203125 2.25 -5.296875 C 1.726562 -7.390625 1.46875 -10.554688 1.46875 -14.796875 C 1.46875 -18.984375 1.742188 -22.128906 2.296875 -24.234375 C 2.859375 -26.347656 3.851562 -27.828125 5.28125 -28.671875 C 6.71875 -29.515625 8.882812 -29.9375 11.78125 -29.9375 C 13.019531 -29.9375 14.351562 -29.847656 15.78125 -29.671875 C 17.21875 -29.503906 18.367188 -29.289062 19.234375 -29.03125 L 19.234375 -23.609375 C 18.304688 -23.722656 17.304688 -23.820312 16.234375 -23.90625 C 15.160156 -24 14.351562 -24.046875 13.8125 -24.046875 C 11.914062 -24.046875 10.632812 -23.898438 9.96875 -23.609375 C 9.3125 -23.328125 8.867188 -22.585938 8.640625 -21.390625 C 8.410156 -20.203125 8.296875 -18.003906 8.296875 -14.796875 C 8.296875 -11.785156 8.359375 -9.660156 8.484375 -8.421875 C 8.617188 -7.191406 8.898438 -6.367188 9.328125 -5.953125 C 9.765625 -5.535156 10.5 -5.328125 11.53125 -5.328125 C 12.019531 -5.328125 12.550781 -5.359375 13.125 -5.421875 L 13.125 -11.875 Z M 10.890625 -11.875 "/></g></g></g><g fill="#27425b" fill-opacity="1"><g transform="translate(303.124149, 527.575266)"><g><path d="M 18.546875 -26.5 L 14.046875 -14.328125 L 19.40625 0 L 13.5625 0 L 9.625 -10.484375 L 7.78125 -10.484375 L 7.78125 0 L 2.046875 0 L 2.046875 -26.5 L 7.78125 -26.5 L 7.78125 -15.390625 L 9.171875 -15.390625 L 13.3125 -26.5 Z M 18.546875 -26.5 "/></g></g></g><g fill="#27425b" fill-opacity="1"><g transform="translate(323.684636, 527.575266)"><g><path d="M 17.65625 -21.5 L 17.65625 -5 C 17.65625 -1.394531 15.960938 0.40625 12.578125 0.40625 L 7.125 0.40625 C 3.738281 0.40625 2.046875 -1.394531 2.046875 -5 L 2.046875 -21.5 C 2.046875 -25.101562 3.738281 -26.90625 7.125 -26.90625 L 12.578125 -26.90625 C 15.960938 -26.90625 17.65625 -25.101562 17.65625 -21.5 Z M 11.921875 -4.34375 L 11.921875 -22.203125 C 11.921875 -22.421875 11.84375 -22.609375 11.6875 -22.765625 C 11.539062 -22.929688 11.359375 -23.015625 11.140625 -23.015625 L 8.5625 -23.015625 C 8.34375 -23.015625 8.15625 -22.929688 8 -22.765625 C 7.851562 -22.609375 7.78125 -22.421875 7.78125 -22.203125 L 7.78125 -4.34375 C 7.78125 -4.125 7.851562 -3.929688 8 -3.765625 C 8.15625 -3.597656 8.34375 -3.515625 8.5625 -3.515625 L 11.140625 -3.515625 C 11.359375 -3.515625 11.539062 -3.597656 11.6875 -3.765625 C 11.84375 -3.929688 11.921875 -4.125 11.921875 -4.34375 Z M 11.921875 -4.34375 "/></g></g></g><g fill="#27425b" fill-opacity="1"><g transform="translate(344.736613, 527.575266)"><g><path d="M 7.734375 0 L 2 0 L 2 -21.5 C 2 -25.101562 3.691406 -26.90625 7.078125 -26.90625 L 10.109375 -26.90625 C 12.109375 -26.90625 13.53125 -26.25 14.375 -24.9375 C 15.164062 -26.25 16.585938 -26.90625 18.640625 -26.90625 L 21.671875 -26.90625 C 25.054688 -26.90625 26.75 -25.101562 26.75 -21.5 L 26.75 0 L 21.015625 0 L 21.015625 -21.984375 C 21.015625 -22.203125 20.9375 -22.394531 20.78125 -22.5625 C 20.632812 -22.726562 20.453125 -22.8125 20.234375 -22.8125 L 18.015625 -22.8125 C 17.796875 -22.8125 17.609375 -22.726562 17.453125 -22.5625 C 17.304688 -22.394531 17.234375 -22.203125 17.234375 -21.984375 L 17.234375 0 L 11.515625 0 L 11.515625 -21.984375 C 11.515625 -22.203125 11.4375 -22.394531 11.28125 -22.5625 C 11.132812 -22.726562 10.953125 -22.8125 10.734375 -22.8125 L 8.515625 -22.8125 C 8.296875 -22.8125 8.109375 -22.726562 7.953125 -22.5625 C 7.804688 -22.394531 7.734375 -22.203125 7.734375 -21.984375 Z M 7.734375 0 "/></g></g></g><g fill="#27425b" fill-opacity="1"><g transform="translate(374.594342, 527.575266)"><g><path d="M 12.375 -26.5 C 15.757812 -26.5 17.453125 -24.695312 17.453125 -21.09375 L 17.453125 -15.8125 C 17.453125 -12.207031 15.757812 -10.40625 12.375 -10.40625 L 7.734375 -10.40625 L 7.734375 0 L 2 0 L 2 -26.5 Z M 11.71875 -15.15625 L 11.71875 -21.75 C 11.71875 -21.96875 11.640625 -22.15625 11.484375 -22.3125 C 11.335938 -22.476562 11.15625 -22.5625 10.9375 -22.5625 L 7.734375 -22.5625 L 7.734375 -14.328125 L 10.9375 -14.328125 C 11.15625 -14.328125 11.335938 -14.410156 11.484375 -14.578125 C 11.640625 -14.742188 11.71875 -14.9375 11.71875 -15.15625 Z M 11.71875 -15.15625 "/></g></g></g><g fill="#27425b" fill-opacity="1"><g transform="translate(394.089947, 527.575266)"><g><path d="M 12.578125 -26.90625 C 15.960938 -26.90625 17.65625 -25.101562 17.65625 -21.5 L 17.65625 0 L 11.921875 0 L 11.921875 -8.890625 L 7.78125 -8.890625 L 7.78125 0 L 2.046875 0 L 2.046875 -21.5 C 2.046875 -25.101562 3.738281 -26.90625 7.125 -26.90625 Z M 7.78125 -13.3125 L 11.921875 -13.3125 L 11.921875 -22.203125 C 11.921875 -22.421875 11.84375 -22.609375 11.6875 -22.765625 C 11.539062 -22.929688 11.359375 -23.015625 11.140625 -23.015625 L 8.5625 -23.015625 C 8.34375 -23.015625 8.15625 -22.929688 8 -22.765625 C 7.851562 -22.609375 7.78125 -22.421875 7.78125 -22.203125 Z M 7.78125 -13.3125 "/></g></g></g><g fill="#27425b" fill-opacity="1"><g transform="translate(415.182871, 527.575266)"><g><path d="M 7.78125 -4.828125 L 14.046875 -4.828125 L 14.046875 0 L 2.046875 0 L 2.046875 -26.5 L 7.78125 -26.5 Z M 7.78125 -4.828125 "/></g></g></g><g fill="#27425b" fill-opacity="1"><g transform="translate(431.115221, 527.575266)"><g><path d="M 7.78125 -4.828125 L 14.046875 -4.828125 L 14.046875 0 L 2.046875 0 L 2.046875 -26.5 L 7.78125 -26.5 Z M 7.78125 -4.828125 "/></g></g></g><g fill="#27425b" fill-opacity="1"><g transform="translate(447.047571, 527.575266)"><g><path d="M 17.40625 -26.5 L 11.71875 -9.671875 L 11.71875 0 L 5.984375 0 L 5.984375 -9.671875 L 0.28125 -26.5 L 5.6875 -26.5 L 8.84375 -15.4375 L 12 -26.5 Z M 17.40625 -26.5 "/></g></g></g><g clip-path="url(#88b2445617)"><path fill="#003648" d="M 423.710938 232.886719 L 344.257812 232.886719 L 344.257812 298.179688 C 344.257812 304.320312 349.246094 309.308594 355.386719 309.308594 L 412.582031 309.308594 C 418.722656 309.308594 423.710938 304.320312 423.710938 298.179688 Z M 383.984375 243.707031 C 370.492188 243.707031 359.539062 254.660156 359.539062 268.148438 C 359.539062 281.640625 370.492188 292.59375 383.984375 292.59375 C 397.472656 292.59375 408.425781 281.640625 408.425781 268.148438 C 408.425781 254.660156 397.472656 243.707031 383.984375 243.707031 Z M 383.984375 243.707031 " fill-opacity="1" fill-rule="evenodd"/></g><path fill="#003648" d="M 383.984375 247.152344 C 395.574219 247.152344 404.980469 256.5625 404.980469 268.148438 C 404.980469 279.738281 395.574219 289.148438 383.984375 289.148438 C 372.394531 289.148438 362.988281 279.738281 362.988281 268.148438 C 362.988281 256.5625 372.394531 247.152344 383.984375 247.152344 Z M 402.351562 268.148438 C 402.351562 278.285156 394.121094 286.515625 383.984375 286.515625 C 373.847656 286.515625 365.617188 278.285156 365.617188 268.148438 C 365.617188 268.148438 370.746094 265.894531 372.945312 265.582031 C 374.894531 265.308594 376.996094 265.519531 378.804688 266.285156 C 381.464844 267.410156 385.519531 271.816406 388.902344 272.339844 C 394.339844 273.183594 397.757812 265.589844 402.351562 268.148438 Z M 402.351562 268.148438 " fill-opacity="1" fill-rule="evenodd"/><g clip-path="url(#c0eaf6d273)"><path fill="#003648" d="M 344.257812 230.503906 L 423.710938 230.503906 L 423.710938 223.84375 C 423.710938 217.699219 418.722656 212.714844 412.582031 212.714844 L 355.386719 212.714844 C 349.242188 212.714844 344.257812 217.699219 344.257812 223.84375 Z M 399.929688 218.933594 C 401.421875 218.933594 402.636719 220.144531 402.636719 221.636719 C 402.636719 223.128906 401.421875 224.339844 399.929688 224.339844 C 398.4375 224.339844 397.226562 223.128906 397.226562 221.636719 C 397.226562 220.144531 398.4375 218.933594 399.929688 218.933594 Z M 410.152344 218.933594 C 411.644531 218.933594 412.859375 220.144531 412.859375 221.636719 C 412.859375 223.128906 411.644531 224.339844 410.152344 224.339844 C 408.660156 224.339844 407.449219 223.128906 407.449219 221.636719 C 407.449219 220.144531 408.660156 218.933594 410.152344 218.933594 Z M 376.222656 220.546875 L 352.148438 220.546875 L 352.148438 222.671875 L 376.222656 222.671875 Z M 376.222656 220.546875 " fill-opacity="1" fill-rule="evenodd"/></g></svg>